<svg xmlns="http://www.w3.org/2000/svg" xmlns:xlink="http://www.w3.org/1999/xlink" width="220" viewBox="600 250 220 350" height="350" preserveAspectRatio="xMidYMid meet" version="1.0"><defs><g/><clipPath id="0aca5f8950"><path d="M 656.007812 377.042969 L 798 377.042969 L 798 565 L 656.007812 565 Z M 656.007812 377.042969 " clip-rule="nonzero"/></clipPath><clipPath id="6dda2bc511"><path d="M 724.910156 563.179688 C 697.527344 571.242188 675.601562 545.570312 665.683594 522.695312 C 655.789062 499.878906 654.304688 473.714844 658.796875 449.441406 C 664.160156 420.449219 686.25 368.28125 723.789062 378.796875 C 730.632812 394.226562 733.964844 409.773438 733.71875 425.210938 C 733.464844 440.953125 729.5625 451.949219 725.425781 463.589844 C 721.890625 473.550781 718.234375 483.847656 716.511719 497.796875 C 713.9375 518.613281 716.765625 540.535156 724.910156 563.179688 Z M 795.234375 449.441406 C 789.851562 420.347656 767.628906 367.925781 729.851562 378.910156 C 736.335938 394.304688 739.484375 409.835938 739.234375 425.300781 C 738.96875 441.945312 734.917969 453.355469 730.628906 465.4375 C 727.191406 475.117188 723.636719 485.125 721.988281 498.472656 C 719.433594 519.140625 722.457031 541.015625 730.972656 563.679688 C 757.492188 570.085938 778.65625 545.050781 788.351562 522.695312 C 798.242188 499.878906 799.726562 473.714844 795.234375 449.441406 Z M 795.234375 449.441406 " clip-rule="nonzero"/></clipPath><clipPath id="e084bcb1b4"><path d="M 0.160156 0.28125 L 141.761719 0.28125 L 141.761719 188 L 0.160156 188 Z M 0.160156 0.28125 " clip-rule="nonzero"/></clipPath><clipPath id="8ecd2fcc56"><path d="M 68.910156 186.179688 C 41.527344 194.242188 19.601562 168.570312 9.683594 145.695312 C -0.210938 122.878906 -1.695312 96.714844 2.796875 72.441406 C 8.160156 43.449219 30.25 -8.71875 67.789062 1.796875 C 74.632812 17.226562 77.964844 32.773438 77.71875 48.210938 C 77.464844 63.953125 73.5625 74.949219 69.425781 86.589844 C 65.890625 96.550781 62.234375 106.847656 60.511719 120.796875 C 57.9375 141.613281 60.765625 163.535156 68.910156 186.179688 Z M 139.234375 72.441406 C 133.851562 43.347656 111.628906 -9.074219 73.851562 1.910156 C 80.335938 17.304688 83.484375 32.835938 83.234375 48.300781 C 82.96875 64.945312 78.917969 76.355469 74.628906 88.4375 C 71.191406 98.117188 67.636719 108.125 65.988281 121.472656 C 63.433594 142.140625 66.457031 164.015625 74.972656 186.679688 C 101.492188 193.085938 122.65625 168.050781 132.351562 145.695312 C 142.242188 122.878906 143.726562 96.714844 139.234375 72.441406 Z M 139.234375 72.441406 " clip-rule="nonzero"/></clipPath><clipPath id="b6e902125f"><rect x="0" width="142" y="0" height="188"/></clipPath><clipPath id="8f21ec1ebc"><path d="M 613 277 L 726 277 L 726 361 L 613 361 Z M 613 277 " clip-rule="nonzero"/></clipPath><clipPath id="f041ad366a"><path d="M 610.042969 280.382812 L 662.503906 245.5 L 734.761719 354.167969 L 682.296875 389.050781 Z M 610.042969 280.382812 " clip-rule="nonzero"/></clipPath><clipPath id="46df96e421"><path d="M 610.042969 280.382812 L 662.503906 245.5 L 734.761719 354.167969 L 682.296875 389.050781 Z M 610.042969 280.382812 " clip-rule="nonzero"/></clipPath><clipPath id="8ed24ca5d1"><path d="M 628 285 L 726 285 L 726 361 L 628 361 Z M 628 285 " clip-rule="nonzero"/></clipPath><clipPath id="83d0dba49a"><path d="M 610.042969 280.382812 L 662.503906 245.5 L 734.761719 354.167969 L 682.296875 389.050781 Z M 610.042969 280.382812 " clip-rule="nonzero"/></clipPath><clipPath id="b4086b02b1"><path d="M 610.042969 280.382812 L 662.503906 245.5 L 734.761719 354.167969 L 682.296875 389.050781 Z M 610.042969 280.382812 " clip-rule="nonzero"/></clipPath><clipPath id="d01fc22be6"><path d="M 612.8125 278.433594 L 661.425781 246.109375 L 733.375 354.3125 L 684.757812 386.636719 Z M 612.8125 278.433594 " clip-rule="nonzero"/></clipPath><clipPath id="6e641f3cc4"><path d="M 722.917969 360.179688 C 725.621094 360.210938 726.347656 359.320312 725.542969 355.882812 C 719.695312 330.925781 705.679688 311.84375 694.519531 301.878906 C 678.496094 287.574219 659.4375 281.992188 644.09375 279.429688 C 636.550781 278.167969 625.878906 278.164062 621.539062 277.960938 C 618.960938 277.839844 613.917969 277.8125 613.625 278.476562 C 613.339844 279.121094 615.230469 280.609375 618.652344 283.859375 C 621.523438 286.578125 628.703125 297.015625 631.019531 302.324219 C 643.210938 330.246094 662.421875 346.03125 678.078125 353.996094 C 695.632812 362.929688 713.699219 360.066406 722.917969 360.179688 Z M 722.917969 360.179688 " clip-rule="evenodd"/></clipPath></defs><g clip-path="url(#0aca5f8950)"><g clip-path="url(#6dda2bc511)"><g transform="matrix(1, 0, 0, 1, 656, 377)"><g clip-path="url(#b6e902125f)"><g clip-path="url(#e084bcb1b4)"><g clip-path="url(#8ecd2fcc56)"><path fill="#ffffff" d="M 0.382812 0.417969 L 141.652344 0.417969 L 141.652344 187.65625 L 0.382812 187.65625 Z M 0.382812 0.417969 " fill-opacity="1" fill-rule="nonzero"/></g></g></g></g></g></g><g clip-path="url(#8f21ec1ebc)"><g clip-path="url(#f041ad366a)"><g clip-path="url(#46df96e421)"><path fill="#fbfbfb" d="M 722.917969 360.179688 C 725.621094 360.210938 726.347656 359.320312 725.542969 355.882812 C 719.695312 330.925781 705.679688 311.84375 694.519531 301.878906 C 678.496094 287.574219 659.4375 281.992188 644.09375 279.429688 C 636.550781 278.167969 625.878906 278.164062 621.539062 277.960938 C 618.960938 277.839844 613.917969 277.8125 613.625 278.476562 C 613.339844 279.121094 615.230469 280.609375 618.652344 283.859375 C 621.523438 286.578125 628.703125 297.015625 631.019531 302.324219 C 643.210938 330.246094 662.421875 346.03125 678.078125 353.996094 C 695.632812 362.929688 713.699219 360.066406 722.917969 360.179688 Z M 722.917969 360.179688 " fill-opacity="1" fill-rule="evenodd"/></g></g></g><g clip-path="url(#8ed24ca5d1)"><g clip-path="url(#83d0dba49a)"><g clip-path="url(#b4086b02b1)"><g clip-path="url(#d01fc22be6)"><g clip-path="url(#6e641f3cc4)"><path fill="#fbfbfb" d="M 653.296875 305.039062 C 652.625 305.183594 651.871094 305.332031 651.117188 305.472656 C 650.027344 305.667969 648.945312 305.847656 648.117188 305.894531 C 647.222656 305.960938 646.203125 305.9375 645.167969 305.925781 C 644.480469 305.921875 643.804688 305.917969 643.140625 305.929688 C 642.527344 305.9375 641.964844 305.964844 641.421875 305.992188 C 640.734375 306.03125 640.167969 306.085938 639.675781 306.121094 C 639.613281 306.109375 639.558594 306.152344 639.546875 306.210938 C 639.539062 306.273438 639.578125 306.332031 639.640625 306.339844 C 640.097656 306.53125 640.617188 306.769531 641.265625 307.003906 C 642.023438 307.28125 642.855469 307.558594 643.765625 307.777344 C 645.246094 308.132812 646.820312 308.292969 648.144531 308.367188 C 649.066406 308.398438 650.277344 308.320312 651.496094 308.199219 C 653.40625 308.007812 655.320312 307.703125 656.039062 307.582031 C 658.675781 310.070312 661.125 312.484375 663.464844 314.8125 C 667.050781 318.386719 670.367188 321.773438 673.589844 324.996094 C 672.570312 325.042969 671.433594 325.085938 670.257812 325.113281 C 668.601562 325.152344 666.871094 325.171875 665.292969 325.113281 C 663.941406 325.085938 662.460938 324.902344 660.96875 324.734375 C 659.960938 324.621094 658.96875 324.519531 658 324.425781 C 657.101562 324.335938 656.269531 324.273438 655.476562 324.214844 C 654.46875 324.144531 653.628906 324.117188 652.910156 324.074219 C 652.824219 324.050781 652.734375 324.097656 652.710938 324.183594 C 652.6875 324.269531 652.738281 324.355469 652.820312 324.378906 C 653.597656 324.789062 654.527344 325.316406 655.6875 325.859375 C 656.605469 326.292969 657.59375 326.703125 658.660156 327.09375 C 659.265625 327.3125 659.878906 327.503906 660.507812 327.679688 C 662.039062 328.113281 663.597656 328.402344 665.015625 328.597656 C 667.070312 328.839844 669.382812 328.996094 671.488281 329.082031 C 674.636719 329.210938 677.296875 329.191406 677.835938 329.1875 C 678.289062 329.625 678.742188 330.0625 679.195312 330.496094 C 681.945312 333.125 684.726562 335.617188 687.65625 337.992188 C 690.714844 340.464844 693.917969 342.835938 697.179688 345.089844 C 696.90625 345.167969 696.625 345.246094 696.335938 345.324219 C 694.664062 345.761719 692.730469 346.175781 690.6875 346.308594 C 689.484375 346.410156 687.878906 346.367188 686.210938 346.378906 C 685.148438 346.382812 684.097656 346.410156 683.082031 346.464844 C 682.089844 346.515625 681.222656 346.601562 680.421875 346.6875 C 678.746094 346.863281 677.726562 347.035156 677.726562 347.035156 C 677.609375 347.015625 677.5 347.09375 677.480469 347.210938 C 677.460938 347.328125 677.539062 347.4375 677.65625 347.457031 C 677.65625 347.457031 678.570312 347.960938 680.140625 348.601562 C 681.234375 349.046875 682.515625 349.535156 683.964844 349.925781 C 686.355469 350.574219 688.945312 350.871094 690.738281 351.007812 C 693.136719 351.105469 695.4375 350.886719 697.4375 350.566406 C 700.113281 350.136719 702.230469 349.492188 703.28125 349.132812 C 707.222656 351.644531 711.273438 354.089844 715.132812 356.238281 C 727.546875 363.148438 729.550781 364.652344 735.296875 367.089844 C 736.992188 367.789062 738.164062 362.386719 736.46875 361.683594 C 730.796875 359.398438 730.339844 357.761719 718.054688 351.230469 C 712.417969 348.234375 706.433594 344.410156 700.730469 340.667969 C 700.851562 339.996094 701.0625 338.203125 700.703125 334.996094 C 700.484375 333.03125 700.054688 330.46875 699.230469 327.214844 C 698.429688 324.277344 697.21875 321.066406 695.765625 318.296875 C 695.308594 317.421875 694.832031 316.617188 694.339844 315.863281 C 693.773438 314.984375 693.242188 314.230469 692.71875 313.546875 C 691.292969 311.683594 690.285156 310.644531 690.285156 310.644531 C 690.230469 310.539062 690.101562 310.5 689.996094 310.558594 C 689.894531 310.613281 689.855469 310.742188 689.914062 310.847656 C 689.914062 310.847656 690.222656 312.234375 690.796875 314.472656 C 691.066406 315.523438 691.371094 316.699219 691.738281 318.015625 C 691.988281 318.90625 692.253906 319.828125 692.539062 320.78125 C 692.9375 322.121094 693.351562 323.492188 693.699219 324.867188 C 693.988281 326.007812 694.238281 327.136719 694.414062 328.230469 C 694.917969 331.246094 695.109375 333.601562 695.171875 335.402344 C 695.1875 335.953125 695.191406 336.441406 695.183594 336.871094 C 693.769531 335.855469 692.375 334.816406 691.007812 333.757812 C 685.894531 329.84375 681.261719 325.5 676.367188 320.84375 C 676.167969 319.65625 675.582031 316.421875 674.625 312.992188 C 674.101562 311.132812 673.476562 309.222656 672.75 307.539062 C 672.234375 306.398438 671.441406 304.816406 670.484375 303.207031 C 670.136719 302.621094 669.773438 302.039062 669.390625 301.472656 C 668.707031 300.457031 668.027344 299.515625 667.386719 298.6875 C 666.136719 297.074219 665.191406 296.03125 665.191406 296.03125 C 665.148438 295.953125 665.050781 295.925781 664.972656 295.96875 C 664.894531 296.011719 664.867188 296.109375 664.910156 296.1875 C 664.910156 296.1875 665.203125 297.230469 665.722656 298.816406 C 665.976562 299.589844 666.265625 300.457031 666.605469 301.394531 C 666.96875 302.382812 667.359375 303.410156 667.765625 304.417969 C 668.4375 306.085938 669.121094 307.65625 669.496094 308.800781 C 670.042969 310.390625 670.46875 312.183594 670.828125 313.917969 C 670.96875 314.609375 671.097656 315.292969 671.214844 315.953125 C 668.441406 313.339844 665.519531 310.648438 662.332031 307.890625 C 659.929688 305.8125 657.367188 303.722656 654.621094 301.597656 C 654.609375 301.527344 654.589844 301.453125 654.570312 301.382812 C 654.570312 301.382812 653.84375 299.265625 652.984375 297.222656 C 652.550781 296.191406 652.085938 295.183594 651.671875 294.453125 C 650.917969 293.1875 649.828125 291.566406 648.628906 290.1875 C 647.878906 289.316406 647.117188 288.570312 646.464844 287.964844 C 645.527344 287.097656 644.871094 286.617188 644.871094 286.617188 C 644.832031 286.570312 644.757812 286.558594 644.710938 286.597656 C 644.660156 286.636719 644.652344 286.710938 644.691406 286.757812 C 644.691406 286.757812 645.007812 287.5 645.5625 288.640625 C 645.828125 289.1875 646.132812 289.796875 646.488281 290.460938 C 646.859375 291.144531 647.269531 291.851562 647.675781 292.5625 C 648.304688 293.664062 648.933594 294.738281 649.351562 295.65625 C 649.667969 296.339844 650 297.277344 650.316406 298.230469 C 650.332031 298.285156 650.351562 298.339844 650.371094 298.390625 C 649.96875 298.097656 649.566406 297.800781 649.15625 297.503906 C 646.914062 295.902344 644.113281 294.117188 641.285156 292.460938 C 635.167969 288.875 629.0625 285.820312 629.0625 285.820312 C 628.945312 285.753906 628.800781 285.792969 628.734375 285.90625 C 628.664062 286.019531 628.703125 286.167969 628.820312 286.234375 C 628.820312 286.234375 634.453125 290.019531 640.136719 294.199219 C 642.71875 296.097656 645.304688 298.054688 647.34375 299.8125 C 649.441406 301.578125 651.417969 303.324219 653.296875 305.039062 Z M 653.296875 305.039062 " fill-opacity="1" fill-rule="evenodd"/></g></g></g></g></g><path stroke-linecap="butt" transform="matrix(0.75, 0.000000000000000051, -0.000000000000000051, 0.75, 406.722466, 142.488632)" fill="none" stroke-linejoin="miter" d="M 0.000253986 0.999532 L 839.406546 0.999532 " stroke="#2fa36b" stroke-width="2" stroke-opacity="1" stroke-miterlimit="4"/><g fill="#f2f3f5" fill-opacity="1"><g transform="translate(610.050726, 110.043307)"><g><path d="M 3.984375 -33.59375 L 11.765625 -33.59375 L 11.765625 0 L 3.984375 0 Z M 3.984375 -33.59375 "/></g></g></g><g fill="#f2f3f5" fill-opacity="1"><g transform="translate(625.790883, 110.043307)"><g><path d="M 15.03125 0.578125 C 12.375 0.578125 9.800781 0.21875 7.3125 -0.5 C 4.832031 -1.21875 2.84375 -2.15625 1.34375 -3.3125 L 3.984375 -9.171875 C 5.421875 -8.109375 7.128906 -7.253906 9.109375 -6.609375 C 11.097656 -5.972656 13.085938 -5.65625 15.078125 -5.65625 C 17.285156 -5.65625 18.914062 -5.984375 19.96875 -6.640625 C 21.019531 -7.296875 21.546875 -8.171875 21.546875 -9.265625 C 21.546875 -10.066406 21.234375 -10.726562 20.609375 -11.25 C 19.992188 -11.78125 19.195312 -12.207031 18.21875 -12.53125 C 17.238281 -12.851562 15.914062 -13.203125 14.25 -13.578125 C 11.695312 -14.191406 9.601562 -14.800781 7.96875 -15.40625 C 6.332031 -16.007812 4.929688 -16.984375 3.765625 -18.328125 C 2.597656 -19.679688 2.015625 -21.476562 2.015625 -23.71875 C 2.015625 -25.664062 2.539062 -27.429688 3.59375 -29.015625 C 4.65625 -30.597656 6.25 -31.851562 8.375 -32.78125 C 10.5 -33.707031 13.097656 -34.171875 16.171875 -34.171875 C 18.316406 -34.171875 20.410156 -33.914062 22.453125 -33.40625 C 24.503906 -32.894531 26.300781 -32.160156 27.84375 -31.203125 L 25.4375 -25.296875 C 22.332031 -27.054688 19.226562 -27.9375 16.125 -27.9375 C 13.945312 -27.9375 12.335938 -27.582031 11.296875 -26.875 C 10.265625 -26.175781 9.75 -25.25 9.75 -24.09375 C 9.75 -22.945312 10.347656 -22.09375 11.546875 -21.53125 C 12.742188 -20.96875 14.578125 -20.414062 17.046875 -19.875 C 19.597656 -19.257812 21.691406 -18.648438 23.328125 -18.046875 C 24.960938 -17.441406 26.363281 -16.484375 27.53125 -15.171875 C 28.695312 -13.859375 29.28125 -12.082031 29.28125 -9.84375 C 29.28125 -7.914062 28.742188 -6.160156 27.671875 -4.578125 C 26.597656 -2.992188 24.988281 -1.738281 22.84375 -0.8125 C 20.695312 0.113281 18.09375 0.578125 15.03125 0.578125 Z M 15.03125 0.578125 "/></g></g></g><g fill="#f2f3f5" fill-opacity="1"><g transform="translate(656.407409, 110.043307)"><g><path d="M 20.25 0.578125 C 16.769531 0.578125 13.628906 -0.171875 10.828125 -1.671875 C 8.023438 -3.179688 5.832031 -5.253906 4.25 -7.890625 C 2.664062 -10.535156 1.875 -13.503906 1.875 -16.796875 C 1.875 -20.097656 2.664062 -23.066406 4.25 -25.703125 C 5.832031 -28.335938 8.023438 -30.40625 10.828125 -31.90625 C 13.628906 -33.414062 16.769531 -34.171875 20.25 -34.171875 C 23.738281 -34.171875 26.875 -33.414062 29.65625 -31.90625 C 32.445312 -30.40625 34.640625 -28.335938 36.234375 -25.703125 C 37.835938 -23.066406 38.640625 -20.097656 38.640625 -16.796875 C 38.640625 -13.503906 37.835938 -10.535156 36.234375 -7.890625 C 34.640625 -5.253906 32.445312 -3.179688 29.65625 -1.671875 C 26.875 -0.171875 23.738281 0.578125 20.25 0.578125 Z M 20.25 -6.046875 C 22.238281 -6.046875 24.03125 -6.5 25.625 -7.40625 C 27.226562 -8.320312 28.484375 -9.597656 29.390625 -11.234375 C 30.304688 -12.867188 30.765625 -14.722656 30.765625 -16.796875 C 30.765625 -18.878906 30.304688 -20.734375 29.390625 -22.359375 C 28.484375 -23.992188 27.226562 -25.265625 25.625 -26.171875 C 24.03125 -27.085938 22.238281 -27.546875 20.25 -27.546875 C 18.269531 -27.546875 16.476562 -27.085938 14.875 -26.171875 C 13.28125 -25.265625 12.023438 -23.992188 11.109375 -22.359375 C 10.203125 -20.734375 9.75 -18.878906 9.75 -16.796875 C 9.75 -14.722656 10.203125 -12.867188 11.109375 -11.234375 C 12.023438 -9.597656 13.28125 -8.320312 14.875 -7.40625 C 16.476562 -6.5 18.269531 -6.046875 20.25 -6.046875 Z M 20.25 -6.046875 "/></g></g></g><g fill="#f2f3f5" fill-opacity="1"><g transform="translate(696.909525, 110.043307)"><g><path d="M 10.9375 -27.265625 L 0.1875 -27.265625 L 0.1875 -33.59375 L 29.46875 -33.59375 L 29.46875 -27.265625 L 18.71875 -27.265625 L 18.71875 0 L 10.9375 0 Z M 10.9375 -27.265625 "/></g></g></g><g fill="#f2f3f5" fill-opacity="1"><g transform="translate(726.566292, 110.043307)"><g><path d="M 3.984375 -33.59375 L 11.765625 -33.59375 L 11.765625 0 L 3.984375 0 Z M 3.984375 -33.59375 "/></g></g></g><g fill="#f2f3f5" fill-opacity="1"><g transform="translate(742.306449, 110.043307)"><g><path d="M 18.53125 -33.59375 C 21.5 -33.59375 24.078125 -33.097656 26.265625 -32.109375 C 28.460938 -31.117188 30.15625 -29.710938 31.34375 -27.890625 C 32.53125 -26.066406 33.125 -23.90625 33.125 -21.40625 C 33.125 -18.945312 32.53125 -16.796875 31.34375 -14.953125 C 30.15625 -13.109375 28.460938 -11.695312 26.265625 -10.71875 C 24.078125 -9.75 21.5 -9.265625 18.53125 -9.265625 L 11.765625 -9.265625 L 11.765625 0 L 3.984375 0 L 3.984375 -33.59375 Z M 18.09375 -15.59375 C 20.425781 -15.59375 22.203125 -16.097656 23.421875 -17.109375 C 24.640625 -18.117188 25.25 -19.550781 25.25 -21.40625 C 25.25 -23.289062 24.640625 -24.738281 23.421875 -25.75 C 22.203125 -26.757812 20.425781 -27.265625 18.09375 -27.265625 L 11.765625 -27.265625 L 11.765625 -15.59375 Z M 18.09375 -15.59375 "/></g></g></g><g fill="#f2f3f5" fill-opacity="1"><g transform="translate(777.43388, 110.043307)"><g><path d="M 20.25 0.578125 C 16.769531 0.578125 13.628906 -0.171875 10.828125 -1.671875 C 8.023438 -3.179688 5.832031 -5.253906 4.25 -7.890625 C 2.664062 -10.535156 1.875 -13.503906 1.875 -16.796875 C 1.875 -20.097656 2.664062 -23.066406 4.25 -25.703125 C 5.832031 -28.335938 8.023438 -30.40625 10.828125 -31.90625 C 13.628906 -33.414062 16.769531 -34.171875 20.25 -34.171875 C 23.738281 -34.171875 26.875 -33.414062 29.65625 -31.90625 C 32.445312 -30.40625 34.640625 -28.335938 36.234375 -25.703125 C 37.835938 -23.066406 38.640625 -20.097656 38.640625 -16.796875 C 38.640625 -13.503906 37.835938 -10.535156 36.234375 -7.890625 C 34.640625 -5.253906 32.445312 -3.179688 29.65625 -1.671875 C 26.875 -0.171875 23.738281 0.578125 20.25 0.578125 Z M 20.25 -6.046875 C 22.238281 -6.046875 24.03125 -6.5 25.625 -7.40625 C 27.226562 -8.320312 28.484375 -9.597656 29.390625 -11.234375 C 30.304688 -12.867188 30.765625 -14.722656 30.765625 -16.796875 C 30.765625 -18.878906 30.304688 -20.734375 29.390625 -22.359375 C 28.484375 -23.992188 27.226562 -25.265625 25.625 -26.171875 C 24.03125 -27.085938 22.238281 -27.546875 20.25 -27.546875 C 18.269531 -27.546875 16.476562 -27.085938 14.875 -26.171875 C 13.28125 -25.265625 12.023438 -23.992188 11.109375 -22.359375 C 10.203125 -20.734375 9.75 -18.878906 9.75 -16.796875 C 9.75 -14.722656 10.203125 -12.867188 11.109375 -11.234375 C 12.023438 -9.597656 13.28125 -8.320312 14.875 -7.40625 C 16.476562 -6.5 18.269531 -6.046875 20.25 -6.046875 Z M 20.25 -6.046875 "/></g></g></g></svg>