<svg xmlns="http://www.w3.org/2000/svg" xmlns:xlink="http://www.w3.org/1999/xlink" width="570" viewBox="420 230 570 350" height="350" preserveAspectRatio="xMidYMid meet" version="1.0"><defs><g/><clipPath id="e18215ddde"><path d="M 740.554688 371.433594 L 792.5625 371.433594 L 792.5625 440.273438 L 740.554688 440.273438 Z M 740.554688 371.433594 " clip-rule="nonzero"/></clipPath><clipPath id="2667159483"><path d="M 765.789062 439.59375 C 755.757812 442.546875 747.730469 433.144531 744.097656 424.769531 C 740.476562 416.414062 739.933594 406.832031 741.578125 397.945312 C 743.542969 387.328125 751.628906 368.222656 765.375 372.074219 C 767.882812 377.726562 769.101562 383.417969 769.011719 389.074219 C 768.921875 394.835938 767.492188 398.863281 765.976562 403.125 C 764.683594 406.773438 763.34375 410.542969 762.710938 415.652344 C 761.769531 423.273438 762.804688 431.304688 765.789062 439.59375 Z M 791.539062 397.945312 C 789.570312 387.292969 781.429688 368.09375 767.597656 372.117188 C 769.972656 377.753906 771.125 383.441406 771.035156 389.105469 C 770.9375 395.199219 769.453125 399.378906 767.882812 403.804688 C 766.621094 407.347656 765.320312 411.011719 764.71875 415.898438 C 763.78125 423.46875 764.890625 431.476562 768.007812 439.777344 C 777.71875 442.125 785.46875 432.957031 789.019531 424.769531 C 792.640625 416.414062 793.183594 406.832031 791.539062 397.945312 Z M 791.539062 397.945312 " clip-rule="nonzero"/></clipPath><clipPath id="bf16e406e7"><path d="M 0.640625 0.519531 L 52.480469 0.519531 L 52.480469 69.273438 L 0.640625 69.273438 Z M 0.640625 0.519531 " clip-rule="nonzero"/></clipPath><clipPath id="4a3d0dbe40"><path d="M 25.789062 68.59375 C 15.757812 71.546875 7.730469 62.144531 4.097656 53.769531 C 0.476562 45.414062 -0.0664062 35.832031 1.578125 26.945312 C 3.542969 16.328125 11.628906 -2.777344 25.375 1.074219 C 27.882812 6.726562 29.101562 12.417969 29.011719 18.074219 C 28.921875 23.835938 27.492188 27.863281 25.976562 32.125 C 24.683594 35.773438 23.34375 39.542969 22.710938 44.652344 C 21.769531 52.273438 22.804688 60.304688 25.789062 68.59375 Z M 51.539062 26.945312 C 49.570312 16.292969 41.429688 -2.90625 27.597656 1.117188 C 29.972656 6.753906 31.125 12.441406 31.035156 18.105469 C 30.9375 24.199219 29.453125 28.378906 27.882812 32.804688 C 26.621094 36.347656 25.320312 40.011719 24.71875 44.898438 C 23.78125 52.46875 24.890625 60.476562 28.007812 68.777344 C 37.71875 71.125 45.46875 61.957031 49.019531 53.769531 C 52.640625 45.414062 53.183594 35.832031 51.539062 26.945312 Z M 51.539062 26.945312 " clip-rule="nonzero"/></clipPath><clipPath id="8d2334da84"><rect x="0" width="53" y="0" height="70"/></clipPath><clipPath id="c02fd4c268"><path d="M 149 102 L 149.519531 102 L 149.519531 103 L 149 103 Z M 149 102 " clip-rule="nonzero"/></clipPath><clipPath id="2f797cd8f8"><rect x="0" width="150" y="0" height="137"/></clipPath><clipPath id="91424fcae4"><path d="M 725 335 L 767 335 L 767 366 L 725 366 Z M 725 335 " clip-rule="nonzero"/></clipPath><clipPath id="b6f40c5210"><path d="M 723.722656 336.035156 L 743.082031 323.160156 L 769.660156 363.128906 L 750.300781 376.003906 Z M 723.722656 336.035156 " clip-rule="nonzero"/></clipPath><clipPath id="adc33d5111"><path d="M 723.722656 336.035156 L 743.082031 323.160156 L 769.660156 363.128906 L 750.300781 376.003906 Z M 723.722656 336.035156 " clip-rule="nonzero"/></clipPath><clipPath id="9c81fbc01f"><path d="M 730 338 L 767 338 L 767 366 L 730 366 Z M 730 338 " clip-rule="nonzero"/></clipPath><clipPath id="b75a9cfca3"><path d="M 723.722656 336.035156 L 743.082031 323.160156 L 769.660156 363.128906 L 750.300781 376.003906 Z M 723.722656 336.035156 " clip-rule="nonzero"/></clipPath><clipPath id="da94443797"><path d="M 723.722656 336.035156 L 743.082031 323.160156 L 769.660156 363.128906 L 750.300781 376.003906 Z M 723.722656 336.035156 " clip-rule="nonzero"/></clipPath><clipPath id="40bd12ca62"><path d="M 724.734375 335.324219 L 742.535156 323.484375 L 768.882812 363.109375 L 751.078125 374.949219 Z M 724.734375 335.324219 " clip-rule="nonzero"/></clipPath><clipPath id="b25648f6d8"><path d="M 765.054688 365.257812 C 766.042969 365.269531 766.308594 364.945312 766.015625 363.683594 C 763.875 354.546875 758.742188 347.558594 754.652344 343.90625 C 748.789062 338.671875 741.808594 336.625 736.1875 335.6875 C 733.425781 335.226562 729.519531 335.222656 727.929688 335.148438 C 726.984375 335.105469 725.136719 335.09375 725.03125 335.339844 C 724.925781 335.574219 725.617188 336.121094 726.871094 337.308594 C 727.921875 338.304688 730.550781 342.128906 731.402344 344.074219 C 735.867188 354.296875 742.902344 360.078125 748.632812 362.996094 C 755.0625 366.265625 761.679688 365.21875 765.054688 365.257812 Z M 765.054688 365.257812 " clip-rule="evenodd"/></clipPath><clipPath id="5885f0fdb6"><path d="M 174 102 L 174.480469 102 L 174.480469 103 L 174 103 Z M 174 102 " clip-rule="nonzero"/></clipPath><clipPath id="c5fb3e2d6e"><rect x="0" width="175" y="0" height="137"/></clipPath><clipPath id="ee39ef6cc2"><rect x="0" width="87" y="0" height="137"/></clipPath><clipPath id="54a612c8d9"><rect x="0" width="142" y="0" height="107"/></clipPath></defs><path stroke-linecap="butt" transform="matrix(0.75, 0.000000000000000051, -0.000000000000000051, 0.75, 406.722466, 142.488646)" fill="none" stroke-linejoin="miter" d="M 0.000253986 0.999513 L 839.406546 0.999513 " stroke="#2fa36b" stroke-width="2" stroke-opacity="1" stroke-miterlimit="4"/><g fill="#f2f3f5" fill-opacity="1"><g transform="translate(640.505837, 110.043295)"><g><path d="M 3.984375 -33.59375 L 11.765625 -33.59375 L 11.765625 -6.34375 L 28.609375 -6.34375 L 28.609375 0 L 3.984375 0 Z M 3.984375 -33.59375 "/></g></g></g><g fill="#f2f3f5" fill-opacity="1"><g transform="translate(669.490767, 110.043295)"><g><path d="M 20.25 0.578125 C 16.769531 0.578125 13.628906 -0.171875 10.828125 -1.671875 C 8.023438 -3.179688 5.832031 -5.253906 4.25 -7.890625 C 2.664062 -10.535156 1.875 -13.503906 1.875 -16.796875 C 1.875 -20.097656 2.664062 -23.066406 4.25 -25.703125 C 5.832031 -28.335938 8.023438 -30.40625 10.828125 -31.90625 C 13.628906 -33.414062 16.769531 -34.171875 20.25 -34.171875 C 23.738281 -34.171875 26.875 -33.414062 29.65625 -31.90625 C 32.445312 -30.40625 34.640625 -28.335938 36.234375 -25.703125 C 37.835938 -23.066406 38.640625 -20.097656 38.640625 -16.796875 C 38.640625 -13.503906 37.835938 -10.535156 36.234375 -7.890625 C 34.640625 -5.253906 32.445312 -3.179688 29.65625 -1.671875 C 26.875 -0.171875 23.738281 0.578125 20.25 0.578125 Z M 20.25 -6.046875 C 22.238281 -6.046875 24.03125 -6.5 25.625 -7.40625 C 27.226562 -8.320312 28.484375 -9.597656 29.390625 -11.234375 C 30.304688 -12.867188 30.765625 -14.722656 30.765625 -16.796875 C 30.765625 -18.878906 30.304688 -20.734375 29.390625 -22.359375 C 28.484375 -23.992188 27.226562 -25.265625 25.625 -26.171875 C 24.03125 -27.085938 22.238281 -27.546875 20.25 -27.546875 C 18.269531 -27.546875 16.476562 -27.085938 14.875 -26.171875 C 13.28125 -25.265625 12.023438 -23.992188 11.109375 -22.359375 C 10.203125 -20.734375 9.75 -18.878906 9.75 -16.796875 C 9.75 -14.722656 10.203125 -12.867188 11.109375 -11.234375 C 12.023438 -9.597656 13.28125 -8.320312 14.875 -7.40625 C 16.476562 -6.5 18.269531 -6.046875 20.25 -6.046875 Z M 20.25 -6.046875 "/></g></g></g><g fill="#f2f3f5" fill-opacity="1"><g transform="translate(709.992883, 110.043295)"><g><path d="M 26.6875 -17.328125 L 33.796875 -17.328125 L 33.796875 -3.703125 C 31.972656 -2.316406 29.859375 -1.253906 27.453125 -0.515625 C 25.054688 0.210938 22.640625 0.578125 20.203125 0.578125 C 16.710938 0.578125 13.578125 -0.164062 10.796875 -1.65625 C 8.015625 -3.144531 5.832031 -5.207031 4.25 -7.84375 C 2.664062 -10.488281 1.875 -13.472656 1.875 -16.796875 C 1.875 -20.128906 2.664062 -23.113281 4.25 -25.75 C 5.832031 -28.394531 8.03125 -30.457031 10.84375 -31.9375 C 13.664062 -33.425781 16.835938 -34.171875 20.359375 -34.171875 C 23.296875 -34.171875 25.960938 -33.675781 28.359375 -32.6875 C 30.765625 -31.695312 32.785156 -30.257812 34.421875 -28.375 L 29.421875 -23.765625 C 27.023438 -26.285156 24.128906 -27.546875 20.734375 -27.546875 C 18.585938 -27.546875 16.679688 -27.097656 15.015625 -26.203125 C 13.359375 -25.304688 12.066406 -24.039062 11.140625 -22.40625 C 10.210938 -20.78125 9.75 -18.910156 9.75 -16.796875 C 9.75 -14.722656 10.210938 -12.867188 11.140625 -11.234375 C 12.066406 -9.597656 13.351562 -8.320312 15 -7.40625 C 16.644531 -6.5 18.523438 -6.046875 20.640625 -6.046875 C 22.878906 -6.046875 24.894531 -6.523438 26.6875 -7.484375 Z M 26.6875 -17.328125 "/></g></g></g><g fill="#f2f3f5" fill-opacity="1"><g transform="translate(746.991858, 110.043295)"><g><path d="M 20.25 0.578125 C 16.769531 0.578125 13.628906 -0.171875 10.828125 -1.671875 C 8.023438 -3.179688 5.832031 -5.253906 4.25 -7.890625 C 2.664062 -10.535156 1.875 -13.503906 1.875 -16.796875 C 1.875 -20.097656 2.664062 -23.066406 4.25 -25.703125 C 5.832031 -28.335938 8.023438 -30.40625 10.828125 -31.90625 C 13.628906 -33.414062 16.769531 -34.171875 20.25 -34.171875 C 23.738281 -34.171875 26.875 -33.414062 29.65625 -31.90625 C 32.445312 -30.40625 34.640625 -28.335938 36.234375 -25.703125 C 37.835938 -23.066406 38.640625 -20.097656 38.640625 -16.796875 C 38.640625 -13.503906 37.835938 -10.535156 36.234375 -7.890625 C 34.640625 -5.253906 32.445312 -3.179688 29.65625 -1.671875 C 26.875 -0.171875 23.738281 0.578125 20.25 0.578125 Z M 20.25 -6.046875 C 22.238281 -6.046875 24.03125 -6.5 25.625 -7.40625 C 27.226562 -8.320312 28.484375 -9.597656 29.390625 -11.234375 C 30.304688 -12.867188 30.765625 -14.722656 30.765625 -16.796875 C 30.765625 -18.878906 30.304688 -20.734375 29.390625 -22.359375 C 28.484375 -23.992188 27.226562 -25.265625 25.625 -26.171875 C 24.03125 -27.085938 22.238281 -27.546875 20.25 -27.546875 C 18.269531 -27.546875 16.476562 -27.085938 14.875 -26.171875 C 13.28125 -25.265625 12.023438 -23.992188 11.109375 -22.359375 C 10.203125 -20.734375 9.75 -18.878906 9.75 -16.796875 C 9.75 -14.722656 10.203125 -12.867188 11.109375 -11.234375 C 12.023438 -9.597656 13.28125 -8.320312 14.875 -7.40625 C 16.476562 -6.5 18.269531 -6.046875 20.25 -6.046875 Z M 20.25 -6.046875 "/></g></g></g><g clip-path="url(#e18215ddde)"><g clip-path="url(#2667159483)"><g transform="matrix(1, 0, 0, 1, 740, 371)"><g clip-path="url(#8d2334da84)"><g clip-path="url(#bf16e406e7)"><g clip-path="url(#4a3d0dbe40)"><path fill="#ffffff" d="M 0.691406 0.570312 L 52.425781 0.570312 L 52.425781 69.136719 L 0.691406 69.136719 Z M 0.691406 0.570312 " fill-opacity="1" fill-rule="nonzero"/></g></g></g></g></g></g><g transform="matrix(1, 0, 0, 1, 588, 336)"><g clip-path="url(#2f797cd8f8)"><g fill="#ffffff" fill-opacity="1"><g transform="translate(1.170485, 102.800467)"><g><path d="M 23.71875 0 C 42.582031 0 51.769531 -9.882812 51.769531 -32.953125 C 51.769531 -56.050781 42.628906 -65.90625 23.882812 -65.90625 L 2.984375 -65.90625 L 2.984375 0 Z M 19.484375 -51.351562 L 24.136719 -51.351562 C 31.125 -51.351562 34.691406 -46.46875 34.691406 -32.953125 C 34.691406 -19.394531 31.125 -14.554688 24.207031 -14.554688 L 19.484375 -14.554688 Z M 19.484375 -51.351562 "/></g></g></g><g fill="#ffffff" fill-opacity="1"><g transform="translate(54.487159, 102.800467)"><g><path d="M 42.441406 -65.90625 L 2.984375 -65.90625 L 2.984375 0 L 42.417969 0 L 42.417969 -14.996094 L 19.484375 -14.996094 L 19.484375 -25.917969 L 40.21875 -25.917969 L 40.21875 -40.40625 L 19.484375 -40.40625 L 19.484375 -50.910156 L 42.441406 -50.910156 Z M 42.441406 -65.90625 "/></g></g></g><g fill="#ffffff" fill-opacity="1"><g transform="translate(98.848295, 102.800467)"><g><path d="M 19.484375 0 L 19.484375 -20.640625 L 26.195312 -20.640625 C 41.585938 -20.640625 48.875 -29.136719 48.875 -43.273438 C 48.875 -57.414062 41.722656 -65.90625 26.613281 -65.90625 L 2.984375 -65.90625 L 2.984375 0 Z M 19.484375 -51.511719 L 25.316406 -51.511719 C 29.96875 -51.511719 31.980469 -48.574219 31.980469 -43.273438 C 31.980469 -37.976562 29.96875 -35.082031 25.316406 -35.082031 L 19.484375 -35.082031 Z M 19.484375 -51.511719 "/></g></g></g><g clip-path="url(#c02fd4c268)"><g fill="#ffffff" fill-opacity="1"><g transform="translate(149.208159, 102.800467)"><g/></g></g></g></g></g><g clip-path="url(#91424fcae4)"><g clip-path="url(#b6f40c5210)"><g clip-path="url(#adc33d5111)"><path fill="#fbfbfb" d="M 765.054688 365.257812 C 766.042969 365.269531 766.3125 364.945312 766.015625 363.683594 C 763.875 354.546875 758.742188 347.558594 754.652344 343.90625 C 748.789062 338.671875 741.808594 336.625 736.1875 335.6875 C 733.425781 335.226562 729.519531 335.222656 727.929688 335.148438 C 726.984375 335.105469 725.136719 335.09375 725.03125 335.339844 C 724.925781 335.574219 725.617188 336.121094 726.871094 337.308594 C 727.921875 338.304688 730.550781 342.128906 731.402344 344.074219 C 735.867188 354.296875 742.902344 360.078125 748.632812 362.996094 C 755.0625 366.265625 761.679688 365.21875 765.054688 365.257812 Z M 765.054688 365.257812 " fill-opacity="1" fill-rule="evenodd"/></g></g></g><g clip-path="url(#9c81fbc01f)"><g clip-path="url(#b75a9cfca3)"><g clip-path="url(#da94443797)"><g clip-path="url(#40bd12ca62)"><g clip-path="url(#b25648f6d8)"><path fill="#fbfbfb" d="M 739.558594 345.066406 C 739.3125 345.117188 739.035156 345.171875 738.761719 345.222656 C 738.363281 345.296875 737.964844 345.363281 737.660156 345.378906 C 737.332031 345.402344 736.960938 345.394531 736.582031 345.390625 C 736.332031 345.386719 736.082031 345.386719 735.839844 345.390625 C 735.613281 345.394531 735.410156 345.40625 735.210938 345.414062 C 734.957031 345.429688 734.75 345.449219 734.570312 345.460938 C 734.546875 345.457031 734.527344 345.472656 734.523438 345.496094 C 734.519531 345.519531 734.535156 345.539062 734.558594 345.542969 C 734.726562 345.613281 734.914062 345.699219 735.152344 345.785156 C 735.429688 345.886719 735.734375 345.988281 736.070312 346.066406 C 736.609375 346.199219 737.1875 346.257812 737.671875 346.285156 C 738.007812 346.296875 738.453125 346.265625 738.898438 346.222656 C 739.597656 346.152344 740.300781 346.042969 740.5625 345.996094 C 741.527344 346.90625 742.425781 347.792969 743.28125 348.644531 C 744.597656 349.953125 745.808594 351.195312 746.988281 352.375 C 746.617188 352.390625 746.199219 352.40625 745.769531 352.417969 C 745.164062 352.429688 744.53125 352.4375 743.953125 352.417969 C 743.457031 352.40625 742.914062 352.339844 742.367188 352.277344 C 742 352.234375 741.636719 352.199219 741.28125 352.164062 C 740.953125 352.132812 740.648438 352.109375 740.355469 352.089844 C 739.988281 352.0625 739.679688 352.050781 739.417969 352.035156 C 739.386719 352.027344 739.351562 352.046875 739.34375 352.078125 C 739.335938 352.109375 739.355469 352.140625 739.382812 352.148438 C 739.667969 352.296875 740.007812 352.492188 740.433594 352.691406 C 740.769531 352.847656 741.132812 353 741.523438 353.140625 C 741.742188 353.222656 741.96875 353.292969 742.199219 353.359375 C 742.761719 353.515625 743.332031 353.621094 743.851562 353.691406 C 744.601562 353.78125 745.449219 353.839844 746.21875 353.871094 C 747.375 353.917969 748.347656 353.910156 748.546875 353.910156 C 748.710938 354.070312 748.878906 354.230469 749.042969 354.386719 C 750.050781 355.351562 751.070312 356.261719 752.140625 357.132812 C 753.261719 358.039062 754.433594 358.90625 755.628906 359.734375 C 755.527344 359.761719 755.425781 359.789062 755.320312 359.816406 C 754.707031 359.980469 754 360.132812 753.25 360.179688 C 752.808594 360.21875 752.222656 360.199219 751.613281 360.203125 C 751.222656 360.207031 750.839844 360.21875 750.464844 360.234375 C 750.101562 360.253906 749.785156 360.285156 749.492188 360.316406 C 748.878906 360.382812 748.503906 360.445312 748.503906 360.445312 C 748.460938 360.4375 748.421875 360.46875 748.414062 360.507812 C 748.40625 360.550781 748.4375 360.59375 748.480469 360.597656 C 748.480469 360.597656 748.8125 360.785156 749.390625 361.019531 C 749.789062 361.179688 750.257812 361.359375 750.789062 361.503906 C 751.664062 361.742188 752.613281 361.851562 753.269531 361.898438 C 754.148438 361.9375 754.992188 361.855469 755.722656 361.738281 C 756.703125 361.582031 757.476562 361.34375 757.863281 361.214844 C 759.308594 362.132812 760.789062 363.027344 762.203125 363.816406 C 766.75 366.34375 767.484375 366.898438 769.589844 367.789062 C 770.207031 368.046875 770.636719 366.066406 770.015625 365.808594 C 767.941406 364.972656 767.773438 364.371094 763.273438 361.980469 C 761.207031 360.882812 759.019531 359.484375 756.929688 358.113281 C 756.972656 357.867188 757.050781 357.210938 756.917969 356.035156 C 756.839844 355.316406 756.683594 354.378906 756.378906 353.1875 C 756.085938 352.109375 755.644531 350.933594 755.113281 349.921875 C 754.945312 349.601562 754.769531 349.304688 754.589844 349.027344 C 754.382812 348.707031 754.1875 348.433594 753.996094 348.179688 C 753.472656 347.5 753.105469 347.117188 753.105469 347.117188 C 753.085938 347.082031 753.035156 347.066406 753 347.085938 C 752.960938 347.109375 752.945312 347.15625 752.96875 347.191406 C 752.96875 347.191406 753.082031 347.699219 753.292969 348.519531 C 753.390625 348.90625 753.5 349.335938 753.636719 349.816406 C 753.726562 350.144531 753.824219 350.480469 753.929688 350.832031 C 754.074219 351.320312 754.226562 351.824219 754.355469 352.328125 C 754.460938 352.746094 754.550781 353.160156 754.617188 353.558594 C 754.800781 354.664062 754.871094 355.527344 754.894531 356.183594 C 754.898438 356.386719 754.902344 356.566406 754.898438 356.722656 C 754.378906 356.351562 753.871094 355.972656 753.367188 355.582031 C 751.496094 354.148438 749.800781 352.558594 748.007812 350.855469 C 747.933594 350.417969 747.71875 349.234375 747.367188 347.980469 C 747.179688 347.296875 746.949219 346.597656 746.683594 345.980469 C 746.492188 345.5625 746.203125 344.984375 745.851562 344.394531 C 745.726562 344.179688 745.59375 343.96875 745.453125 343.757812 C 745.203125 343.386719 744.953125 343.042969 744.71875 342.742188 C 744.261719 342.148438 743.914062 341.765625 743.914062 341.765625 C 743.898438 341.738281 743.863281 341.726562 743.835938 341.746094 C 743.804688 341.761719 743.796875 341.796875 743.8125 341.824219 C 743.8125 341.824219 743.917969 342.207031 744.109375 342.785156 C 744.203125 343.070312 744.308594 343.386719 744.433594 343.730469 C 744.566406 344.09375 744.707031 344.46875 744.855469 344.839844 C 745.101562 345.449219 745.355469 346.023438 745.492188 346.445312 C 745.691406 347.023438 745.847656 347.683594 745.976562 348.316406 C 746.03125 348.570312 746.078125 348.820312 746.121094 349.0625 C 745.105469 348.105469 744.035156 347.121094 742.867188 346.109375 C 741.988281 345.347656 741.050781 344.585938 740.042969 343.804688 C 740.039062 343.78125 740.03125 343.753906 740.023438 343.726562 C 740.023438 343.726562 739.757812 342.949219 739.445312 342.203125 C 739.285156 341.824219 739.117188 341.457031 738.964844 341.1875 C 738.6875 340.726562 738.289062 340.132812 737.847656 339.625 C 737.574219 339.308594 737.296875 339.035156 737.054688 338.8125 C 736.714844 338.496094 736.472656 338.320312 736.472656 338.320312 C 736.457031 338.300781 736.433594 338.296875 736.414062 338.3125 C 736.394531 338.328125 736.394531 338.351562 736.40625 338.371094 C 736.40625 338.371094 736.523438 338.640625 736.726562 339.058594 C 736.824219 339.261719 736.933594 339.484375 737.066406 339.726562 C 737.199219 339.976562 737.351562 340.238281 737.5 340.496094 C 737.730469 340.898438 737.960938 341.292969 738.113281 341.628906 C 738.230469 341.878906 738.351562 342.222656 738.46875 342.574219 C 738.472656 342.59375 738.480469 342.613281 738.488281 342.632812 C 738.339844 342.523438 738.191406 342.414062 738.042969 342.304688 C 737.222656 341.71875 736.195312 341.066406 735.160156 340.460938 C 732.917969 339.144531 730.683594 338.027344 730.683594 338.027344 C 730.640625 338.003906 730.585938 338.015625 730.5625 338.058594 C 730.539062 338.101562 730.554688 338.15625 730.59375 338.179688 C 730.59375 338.179688 732.65625 339.566406 734.738281 341.097656 C 735.683594 341.792969 736.632812 342.507812 737.378906 343.152344 C 738.148438 343.800781 738.871094 344.4375 739.558594 345.066406 Z M 739.558594 345.066406 " fill-opacity="1" fill-rule="evenodd"/></g></g></g></g></g><g transform="matrix(1, 0, 0, 1, 798, 336)"><g clip-path="url(#c5fb3e2d6e)"><g fill="#ffffff" fill-opacity="1"><g transform="translate(0.811932, 102.800467)"><g><path d="M 24.738281 1.226562 C 39.15625 1.226562 47.578125 -5.414062 47.578125 -18.628906 C 47.578125 -29.550781 42.046875 -35.59375 31.589844 -38.902344 L 25.988281 -41.214844 C 20.941406 -43.621094 18.769531 -45.636719 18.769531 -49.617188 C 18.769531 -52.484375 20.457031 -54.246094 24.667969 -54.246094 C 29.621094 -54.246094 31.078125 -51.835938 31.332031 -45.867188 L 46.628906 -45.867188 C 46.121094 -60.976562 38.625 -67.089844 24.113281 -67.089844 C 8.285156 -67.089844 1.96875 -59.058594 1.96875 -48.414062 C 1.96875 -36.679688 8.214844 -31.125 16.617188 -28.117188 L 22.425781 -25.917969 C 28.164062 -23.695312 30.664062 -21.335938 30.664062 -16.753906 C 30.664062 -13.445312 28.859375 -11.710938 24.34375 -11.710938 C 19.902344 -11.710938 17.285156 -13.351562 16.984375 -21.242188 L 1.066406 -21.242188 C 1.597656 -5.136719 9.257812 1.226562 24.738281 1.226562 Z M 24.738281 1.226562 "/></g></g></g><g fill="#ffffff" fill-opacity="1"><g transform="translate(49.40786, 102.800467)"><g><path d="M 19.484375 0 L 19.484375 -65.90625 L 2.984375 -65.90625 L 2.984375 0 Z M 19.484375 0 "/></g></g></g><g fill="#ffffff" fill-opacity="1"><g transform="translate(71.877691, 102.800467)"><g><path d="M 1.34375 -65.90625 L 1.34375 -50.910156 L 15.34375 -50.910156 L 15.34375 0 L 31.820312 0 L 31.820312 -50.910156 L 45.820312 -50.910156 L 45.820312 -65.90625 Z M 1.34375 -65.90625 "/></g></g></g><g fill="#ffffff" fill-opacity="1"><g transform="translate(119.03888, 102.800467)"><g><path d="M 27.65625 1.226562 C 43.644531 1.226562 53.757812 -8.144531 53.757812 -32.90625 C 53.757812 -57.691406 43.644531 -67.089844 27.65625 -67.089844 C 11.664062 -67.089844 1.550781 -57.738281 1.550781 -33 C 1.550781 -8.191406 11.617188 1.226562 27.65625 1.226562 Z M 27.65625 -13.144531 C 21.960938 -13.144531 18.582031 -17.355469 18.582031 -33 C 18.582031 -48.574219 21.960938 -52.71875 27.65625 -52.71875 C 33.347656 -52.71875 36.726562 -48.527344 36.726562 -32.90625 C 36.726562 -17.285156 33.347656 -13.144531 27.65625 -13.144531 Z M 27.65625 -13.144531 "/></g></g></g><g clip-path="url(#5885f0fdb6)"><g fill="#ffffff" fill-opacity="1"><g transform="translate(174.351396, 102.800467)"><g/></g></g></g></g></g><g transform="matrix(1, 0, 0, 1, 488, 335)"><g clip-path="url(#ee39ef6cc2)"><g fill="#ffffff" fill-opacity="1"><g transform="translate(0.574759, 102.59367)"><g><path d="M 42.441406 -65.90625 L 2.984375 -65.90625 L 2.984375 0 L 42.417969 0 L 42.417969 -14.996094 L 19.484375 -14.996094 L 19.484375 -25.917969 L 40.21875 -25.917969 L 40.21875 -40.40625 L 19.484375 -40.40625 L 19.484375 -50.910156 L 42.441406 -50.910156 Z M 42.441406 -65.90625 "/></g></g></g><g fill="#ffffff" fill-opacity="1"><g transform="translate(44.935895, 102.59367)"><g><path d="M 39.292969 0 L 39.292969 -14.996094 L 19.484375 -14.996094 L 19.484375 -65.90625 L 2.984375 -65.90625 L 2.984375 0 Z M 39.292969 0 "/></g></g></g><g fill="#ffffff" fill-opacity="1"><g transform="translate(85.572879, 102.59367)"><g/></g></g></g></g><g transform="matrix(1, 0, 0, 1, 780, 448)"><g clip-path="url(#54a612c8d9)"><g fill="#ffffff" fill-opacity="1"><g transform="translate(0.912774, 80.488741)"><g><path d="M 21.550781 0 L 21.550781 -51.238281 L 13.980469 -51.238281 C 12.648438 -42.761719 8.90625 -41.214844 3.09375 -41.214844 L 2.175781 -41.214844 L 2.175781 -34.164062 L 12.035156 -34.164062 L 12.035156 0 Z M 21.550781 0 "/></g></g></g><g fill="#ffffff" fill-opacity="1"><g transform="translate(27.608636, 80.488741)"><g><path d="M 29.125 -48.285156 C 26.519531 -50.824219 23.082031 -52.082031 18.621094 -52.082031 C 9.589844 -52.082031 3.417969 -46.503906 3.417969 -34.273438 C 3.417969 -23.136719 8.652344 -17.199219 16.640625 -17.199219 C 20.472656 -17.199219 23.65625 -18.726562 25.851562 -22.308594 C 25.4375 -9.859375 22.972656 -6.53125 18.421875 -6.53125 C 15.488281 -6.53125 13.601562 -8.132812 13.113281 -12.339844 L 4.640625 -12 C 5.59375 -3.167969 10.542969 0.898438 18.3125 0.898438 C 29.125 0.898438 34.738281 -6.945312 34.738281 -26.050781 C 34.738281 -37.726562 33.046875 -44.582031 29.125 -48.285156 Z M 18.78125 -24.429688 C 14.789062 -24.429688 12.449219 -27.527344 12.449219 -34.632812 C 12.449219 -42.132812 14.894531 -44.6875 18.816406 -44.6875 C 20.617188 -44.6875 22.109375 -44.09375 23.191406 -42.90625 C 24.574219 -41.484375 25.3125 -38.949219 25.3125 -34.523438 C 25.3125 -27.34375 22.648438 -24.429688 18.78125 -24.429688 Z M 18.78125 -24.429688 "/></g></g></g><g fill="#ffffff" fill-opacity="1"><g transform="translate(65.727598, 80.488741)"><g><path d="M 15.488281 -8.277344 C 15.886719 -11.675781 17.359375 -13.761719 20.761719 -17.019531 L 26.050781 -21.570312 C 31.035156 -25.816406 33.695312 -30.457031 33.695312 -37.167969 C 33.695312 -46.992188 28.660156 -51.972656 19.105469 -51.972656 C 8.996094 -51.972656 3.921875 -46.34375 3.921875 -34.722656 L 3.921875 -33.910156 L 12.71875 -33.910156 L 12.71875 -34.308594 C 12.71875 -41.019531 14.789062 -43.789062 18.78125 -43.789062 C 22.523438 -43.789062 24.46875 -41.449219 24.46875 -36.683594 C 24.46875 -32.167969 22.542969 -29.109375 19.230469 -26.085938 L 13.941406 -21.640625 C 7.394531 -16.246094 3.851562 -10.921875 3.671875 -0.898438 L 3.671875 0 L 33.714844 0 L 33.714844 -8.367188 L 23.40625 -8.367188 Z M 15.488281 -8.277344 "/></g></g></g><g fill="#ffffff" fill-opacity="1"><g transform="translate(102.947105, 80.488741)"><g><path d="M 27.886719 -27.09375 C 31.96875 -29.179688 33.859375 -32.921875 33.859375 -38.519531 C 33.859375 -47.621094 28.351562 -52.046875 19.035156 -52.046875 C 9.75 -52.046875 4.136719 -47.601562 4.136719 -38.519531 C 4.136719 -32.851562 6.0625 -29.125 10.253906 -27.113281 C 5.164062 -25.292969 2.644531 -21.175781 2.644531 -14.445312 C 2.644531 -4.191406 8.90625 0.933594 19.035156 0.933594 C 29.179688 0.933594 35.371094 -4.226562 35.371094 -14.445312 C 35.371094 -21.121094 32.90625 -25.222656 27.886719 -27.09375 Z M 19.035156 -44.957031 C 23.082031 -44.957031 25.402344 -42.980469 25.402344 -37.5625 C 25.402344 -32.167969 23.027344 -30.097656 19.035156 -30.097656 C 15.003906 -30.097656 12.59375 -32.167969 12.59375 -37.5625 C 12.59375 -42.941406 14.859375 -44.957031 19.035156 -44.957031 Z M 19.050781 -6.511719 C 14.339844 -6.511719 11.730469 -9.066406 11.730469 -15.113281 C 11.730469 -21.050781 14.429688 -23.710938 19.050781 -23.710938 C 23.585938 -23.710938 26.265625 -21.050781 26.265625 -15.113281 C 26.265625 -9.121094 23.695312 -6.511719 19.050781 -6.511719 Z M 19.050781 -6.511719 "/></g></g></g><g fill="#ffffff" fill-opacity="1"><g transform="translate(140.960515, 80.488741)"><g/></g></g></g></g></svg>