<svg xmlns="http://www.w3.org/2000/svg" viewBox="0 0 512 512">
  <!-- Utilizamos el fill que resalte o un color sólido. Un color hueso/dorado para The Deposito. -->
  <path fill="#C8A97E" d="M410.6 70.4C374.9 31.7 322 8 266.6 8 136.6 8 36.4 122.9 56.6 257.5c11.5 76.5 62.7 141.5 130.6 171.5 35.1 15.5 73.9 23.9 113.8 23.9 97 0 178.6-63 203.1-154.5 13.5-50.6 6.3-102.6-18.7-147-16-28.4-41.5-54.8-74.8-81zM114.4 207c4-27.1 16-52.6 34.5-74.2 26.5-30.8 63-47.5 101.4-47.5 15.3 0 30.7 2.4 45.7 7.2 46.2 14.7 83.5 49.3 103 94.2.9 2.2-1.1 4.5-3.3 4.2-30.6-4.5-62-3.1-92.4 4.5-23.9 6-47.1 16.4-67.9 30.4-23.4 15.8-43.9 35.6-59.5 58.6-14 20.8-24.2 44.1-29.3 68.4-1.2 5.9-9.5 6.3-12.2.8-19.1-39.2-25.5-84.3-20-131.6z"/>
</svg>
