<svg xmlns="http://www.w3.org/2000/svg" viewBox="0 0 142 188" fill="#F2F3F5">
  <path d="M 68.910156 186.179688 C 41.527344 194.242188 19.601562 168.570312 9.683594 145.695312 C -0.210938 122.878906 -1.695312 96.714844 2.796875 72.441406 C 8.160156 43.449219 30.25 -8.71875 67.789062 1.796875 C 74.632812 17.226562 77.964844 32.773438 77.71875 48.210938 C 77.464844 63.953125 73.5625 74.949219 69.425781 86.589844 C 65.890625 96.550781 62.234375 106.847656 60.511719 120.796875 C 57.9375 141.613281 60.765625 163.535156 68.910156 186.179688 Z M 139.234375 72.441406 C 133.851562 43.347656 111.628906 -9.074219 73.851562 1.910156 C 80.335938 17.304688 83.484375 32.835938 83.234375 48.300781 C 82.96875 64.945312 78.917969 76.355469 74.628906 88.4375 C 71.191406 98.117188 67.636719 108.125 65.988281 121.472656 C 63.433594 142.140625 66.457031 164.015625 74.972656 186.679688 C 101.492188 193.085938 122.65625 168.050781 132.351562 145.695312 C 142.242188 122.878906 143.726562 96.714844 139.234375 72.441406 Z" fill-rule="nonzero"/>
</svg>